<svg xmlns="http://www.w3.org/2000/svg" width="500" height="97" viewBox="0 0 500 97" version="1.1"><path d="M 200.409 26.500 C 200.408 35.850, 200.558 39.810, 200.743 35.299 C 200.928 30.789, 200.929 23.139, 200.745 18.299 C 200.562 13.460, 200.410 17.150, 200.409 26.500 M 219.336 18 C 219.336 22.125, 219.513 23.813, 219.728 21.750 C 219.944 19.688, 219.944 16.313, 219.728 14.250 C 219.513 12.188, 219.336 13.875, 219.336 18 M 227.343 19.500 C 227.346 23.900, 227.522 25.576, 227.733 23.224 C 227.945 20.872, 227.942 17.272, 227.727 15.224 C 227.512 13.176, 227.339 15.100, 227.343 19.500 M 121 15.776 C 121 16.203, 122.800 16.381, 125 16.171 C 127.200 15.962, 129 15.612, 129 15.395 C 129 15.178, 127.200 15, 125 15 C 122.800 15, 121 15.349, 121 15.776 M 390.286 27.500 C 390.294 30.250, 390.488 31.256, 390.718 29.736 C 390.947 28.216, 390.941 25.966, 390.704 24.736 C 390.467 23.506, 390.279 24.750, 390.286 27.500 M 32.264 25.718 C 33.784 25.947, 36.034 25.941, 37.264 25.704 C 38.494 25.467, 37.250 25.279, 34.500 25.286 C 31.750 25.294, 30.744 25.488, 32.264 25.718 M 168.300 32 C 168.300 35.025, 168.487 36.263, 168.716 34.750 C 168.945 33.237, 168.945 30.762, 168.716 29.250 C 168.487 27.738, 168.300 28.975, 168.300 32 M 29.768 32.725 C 31.565 32.947, 34.265 32.943, 35.768 32.715 C 37.271 32.486, 35.800 32.304, 32.500 32.310 C 29.200 32.315, 27.971 32.502, 29.768 32.725 M 121 37 C 121 39.200, 121.178 41, 121.395 41 C 121.612 41, 121.962 39.200, 122.171 37 C 122.381 34.800, 122.203 33, 121.776 33 C 121.349 33, 121 34.800, 121 37 M 74.250 45.689 C 75.213 45.941, 76.787 45.941, 77.750 45.689 C 78.713 45.438, 77.925 45.232, 76 45.232 C 74.075 45.232, 73.287 45.438, 74.250 45.689 M 233.250 45.689 C 234.213 45.941, 235.787 45.941, 236.750 45.689 C 237.713 45.438, 236.925 45.232, 235 45.232 C 233.075 45.232, 232.287 45.438, 233.250 45.689 M 399.400 71.500 C 399.401 79.750, 399.556 82.992, 399.744 78.704 C 399.932 74.417, 399.931 67.667, 399.742 63.704 C 399.552 59.742, 399.399 63.250, 399.400 71.500 M 316.116 60.250 C 316.200 61.875, 316.357 62.026, 316.681 60.792 C 317.041 59.426, 318.565 59.016, 324.315 58.741 L 331.500 58.397 323.750 58.199 C 316.290 58.007, 316.004 58.084, 316.116 60.250 M 407 64 C 407 67.300, 407.337 70.001, 407.750 70.002 C 408.163 70.003, 408.500 67.647, 408.500 64.768 C 408.500 59.761, 408.631 59.504, 411.500 58.884 C 414.411 58.256, 414.389 58.233, 410.750 58.118 L 407 58 407 64 M 250.286 69.500 C 250.294 72.250, 250.488 73.256, 250.718 71.736 C 250.947 70.216, 250.941 67.966, 250.704 66.736 C 250.467 65.506, 250.279 66.750, 250.286 69.500 M 316 77 C 316 79.200, 316.178 81, 316.395 81 C 316.612 81, 316.962 79.200, 317.171 77 C 317.381 74.800, 317.203 73, 316.776 73 C 316.349 73, 316 74.800, 316 77 M 360 75.250 C 360 75.662, 362.475 76, 365.500 76 C 368.525 76, 371 75.662, 371 75.250 C 371 74.838, 368.525 74.500, 365.500 74.500 C 362.475 74.500, 360 74.838, 360 75.250 M 242.750 76.706 C 243.988 76.944, 246.012 76.944, 247.250 76.706 C 248.488 76.467, 247.475 76.272, 245 76.272 C 242.525 76.272, 241.512 76.467, 242.750 76.706 M 284.264 80.718 C 285.784 80.947, 288.034 80.941, 289.264 80.704 C 290.494 80.467, 289.250 80.279, 286.500 80.286 C 283.750 80.294, 282.744 80.488, 284.264 80.718" stroke="none" fill="#f4f4f4" fill-rule="evenodd"/><path d="M 69.047 8.305 C 67.148 8.910, 63.909 11.091, 61.850 13.150 C 52.443 22.557, 55.147 38.406, 67.182 44.403 C 72.746 47.176, 76.468 47.586, 81.905 46.027 C 92.667 42.941, 98.581 32.757, 95.958 21.825 C 93.253 10.549, 81.123 4.455, 69.047 8.305 M 18.456 9.253 C 18.178 9.978, 18.074 18.429, 18.225 28.035 L 18.500 45.500 23 45.500 L 27.500 45.500 27.800 39.750 L 28.100 34 33.300 33.985 C 40.148 33.965, 41.210 33.175, 40.819 28.398 L 40.500 24.500 34.351 24.205 L 28.201 23.910 27.846 20.205 L 27.491 16.500 34.996 16.500 L 42.500 16.500 42.500 12.500 L 42.500 8.500 30.731 8.218 C 21.715 8.002, 18.844 8.244, 18.456 9.253 M 112.667 8.667 C 111.833 9.500, 111.779 42.260, 112.607 44.418 C 113.034 45.531, 114.526 46, 117.635 46 L 122.056 46 121.390 39.500 C 120.903 34.749, 121.046 33, 121.921 33 C 122.579 33, 122.840 33.450, 122.500 34 C 122.151 34.565, 122.968 35, 124.378 35 C 126.364 35, 127.447 36.071, 129.687 40.250 C 132.482 45.466, 132.534 45.502, 137.750 45.802 C 141.289 46.006, 143 45.720, 143 44.924 C 143 44.275, 141.579 41.260, 139.842 38.224 C 137.155 33.527, 136.901 32.540, 138.138 31.602 C 143.310 27.681, 144.731 18.470, 140.912 13.615 C 137.325 9.056, 133.999 8, 123.216 8 C 117.781 8, 113.033 8.300, 112.667 8.667 M 160.228 26.750 L 160.500 45.500 165 45.500 L 169.500 45.500 170 36.012 L 170.500 26.523 173.854 31.762 C 176.811 36.379, 177.608 37, 180.578 37 C 183.520 37, 184.388 36.345, 187.434 31.823 L 190.920 26.645 191.210 36.073 L 191.500 45.500 195.901 45.815 C 198.745 46.018, 200.597 45.665, 201.136 44.815 C 202.163 43.195, 202.253 10.887, 201.235 9.500 C 200.831 8.950, 198.836 8.390, 196.802 8.255 C 193.189 8.015, 192.960 8.218, 186.920 17.038 L 180.736 26.067 175.274 18.283 C 172.270 14.003, 169.582 9.938, 169.299 9.250 C 168.998 8.516, 166.963 8, 164.371 8 L 159.956 8 160.228 26.750 M 219.500 22.390 C 219.500 38.834, 220.516 41.619, 227.797 45.144 C 235.328 48.789, 243.147 46.696, 248.438 39.618 C 250.294 37.136, 250.500 35.443, 250.500 22.680 L 250.500 8.500 245.750 8.240 L 241 7.981 240.985 19.740 C 240.968 33.358, 239.994 36.348, 235.426 36.799 C 230.058 37.328, 229.102 35.060, 228.782 21.033 L 228.500 8.651 224 8.465 L 219.500 8.279 219.500 22.390 M 200.409 26.500 C 200.408 35.850, 200.558 39.810, 200.743 35.299 C 200.928 30.789, 200.929 23.139, 200.745 18.299 C 200.562 13.460, 200.410 17.150, 200.409 26.500 M 227.343 19.500 C 227.346 23.900, 227.522 25.576, 227.733 23.224 C 227.945 20.872, 227.942 17.272, 227.727 15.224 C 227.512 13.176, 227.339 15.100, 227.343 19.500 M 121.500 20.785 L 121.500 26.572 126.337 25.954 C 131.120 25.343, 132.955 23.962, 132.985 20.950 C 133.011 18.315, 130.792 17.006, 126.050 16.858 L 121.500 16.716 125.500 16 L 129.500 15.284 125.500 15.141 L 121.500 14.999 121.500 20.785 M 71.315 18.007 C 70.114 18.491, 68.651 19.783, 68.065 20.878 C 66.634 23.552, 66.768 31.115, 68.282 33.087 C 71.764 37.622, 78.394 38.222, 82.923 34.411 C 85.562 32.191, 85.995 31.158, 85.968 27.161 C 85.951 24.597, 85.388 21.786, 84.718 20.913 C 81.937 17.291, 76.187 16.044, 71.315 18.007 M 266.418 21.354 C 266.128 22.108, 266.029 25.374, 266.196 28.612 L 266.500 34.500 329 34.500 L 391.500 34.500 391.500 27.500 L 391.500 20.500 329.222 20.242 C 277.247 20.027, 266.856 20.211, 266.418 21.354 M 390.286 27.500 C 390.294 30.250, 390.488 31.256, 390.718 29.736 C 390.947 28.216, 390.941 25.966, 390.704 24.736 C 390.467 23.506, 390.279 24.750, 390.286 27.500 M 32.264 25.718 C 33.784 25.947, 36.034 25.941, 37.264 25.704 C 38.494 25.467, 37.250 25.279, 34.500 25.286 C 31.750 25.294, 30.744 25.488, 32.264 25.718 M 168.300 32 C 168.300 35.025, 168.487 36.263, 168.716 34.750 C 168.945 33.237, 168.945 30.762, 168.716 29.250 C 168.487 27.738, 168.300 28.975, 168.300 32 M 29.768 32.725 C 31.565 32.947, 34.265 32.943, 35.768 32.715 C 37.271 32.486, 35.800 32.304, 32.500 32.310 C 29.200 32.315, 27.971 32.502, 29.768 32.725 M 74.250 45.689 C 75.213 45.941, 76.787 45.941, 77.750 45.689 C 78.713 45.438, 77.925 45.232, 76 45.232 C 74.075 45.232, 73.287 45.438, 74.250 45.689 M 233.250 45.689 C 234.213 45.941, 235.787 45.941, 236.750 45.689 C 237.713 45.438, 236.925 45.232, 235 45.232 C 233.075 45.232, 232.287 45.438, 233.250 45.689 M 267.412 52.368 C 267.158 53.029, 267.074 61.429, 267.225 71.035 L 267.500 88.500 280 88.500 L 292.500 88.500 292.500 84 L 292.500 79.500 284.750 79.208 L 277 78.916 277 65.041 L 277 51.167 272.437 51.167 C 269.806 51.167, 267.678 51.676, 267.412 52.368 M 308.228 69.720 L 308.500 88.500 321 88.500 L 333.500 88.500 333.500 84.500 L 333.500 80.500 325.750 80.208 L 318 79.916 317.858 76.708 C 317.723 73.662, 317.680 73.703, 317 77.500 L 316.284 81.500 316.141 77.500 L 315.998 73.500 323.749 73.500 L 331.500 73.500 331.500 69.500 L 331.500 65.500 324.750 65.204 C 318.330 64.923, 318 64.788, 318 62.454 C 318 60.086, 318.242 60, 324.878 60 C 332.579 60, 334.346 58.876, 333.822 54.310 L 333.500 51.500 320.728 51.220 L 307.956 50.940 308.228 69.720 M 360.085 53.195 C 359.586 54.463, 356.437 62.373, 353.089 70.774 C 349.740 79.174, 347 86.736, 347 87.578 C 347 88.781, 348.018 89.044, 351.742 88.805 C 355.787 88.545, 356.677 88.096, 357.797 85.750 C 359.036 83.153, 359.483 83, 365.835 83 C 372.391 83, 372.590 83.076, 373.694 86 C 374.722 88.725, 375.241 89, 379.354 89 C 381.844 89, 384.102 88.644, 384.371 88.208 C 384.641 87.772, 381.611 79.335, 377.640 69.458 L 370.418 51.500 365.705 51.195 C 361.571 50.928, 360.881 51.173, 360.085 53.195 M 399.500 70.132 L 399.500 89.086 404 88.793 L 408.500 88.500 408.802 83.250 C 409.061 78.761, 409.395 78, 411.111 78 C 412.215 78, 412.840 77.550, 412.500 77 C 412.160 76.450, 412.378 76, 412.985 76 C 413.591 76, 413.977 76.563, 413.841 77.250 C 413.557 78.685, 416.507 84.663, 418.776 87.250 C 420.439 89.147, 428.420 89.748, 429.466 88.055 C 429.787 87.536, 428.615 84.778, 426.860 81.928 C 424.740 78.481, 423.978 76.332, 424.586 75.513 C 428.306 70.499, 429.236 68.620, 429.642 65.288 C 430.260 60.230, 427.487 54.994, 423 52.746 C 420.314 51.400, 417.174 51.014, 409.500 51.085 L 399.500 51.177 399.500 70.132 M 446.444 52.285 C 446.173 52.992, 446.074 61.429, 446.225 71.035 L 446.500 88.500 451 88.500 L 455.500 88.500 455.788 78.600 L 456.076 68.701 463.535 78.850 C 470.527 88.366, 471.212 89, 474.497 89 L 478 89 478 70.089 L 478 51.177 473.750 51.339 L 469.500 51.500 469 60.884 L 468.500 70.269 461.564 60.634 C 454.864 51.328, 454.496 51, 450.782 51 C 448.573 51, 446.727 51.547, 446.444 52.285 M 316.116 60.250 C 316.200 61.875, 316.357 62.026, 316.681 60.792 C 317.041 59.426, 318.565 59.016, 324.315 58.741 L 331.500 58.397 323.750 58.199 C 316.290 58.007, 316.004 58.084, 316.116 60.250 M 407 63.905 L 407 69.810 411.250 69.269 C 417.728 68.445, 419.167 67.382, 418.808 63.684 C 418.515 60.652, 418.276 60.486, 413.807 60.198 L 409.114 59.895 408.725 64.198 L 408.337 68.500 408.418 64.005 C 408.494 59.844, 408.723 59.463, 411.500 58.873 C 414.403 58.257, 414.378 58.233, 410.750 58.118 L 407 58 407 63.905 M 127.200 63.200 C 125.955 64.445, 125.543 73.645, 126.607 76.418 C 127.151 77.837, 133.529 78, 188.407 78 C 234.668 78, 249.893 77.707, 250.800 76.800 C 252.358 75.242, 252.358 64.758, 250.800 63.200 C 249.067 61.467, 128.933 61.467, 127.200 63.200 M 250.286 69.500 C 250.294 72.250, 250.488 73.256, 250.718 71.736 C 250.947 70.216, 250.941 67.966, 250.704 66.736 C 250.467 65.506, 250.279 66.750, 250.286 69.500 M 363.809 69.376 C 362.572 72.716, 362.445 74.028, 363.320 74.451 C 363.969 74.765, 363.488 74.834, 362.250 74.605 C 361.012 74.375, 360 74.595, 360 75.094 C 360 75.592, 362.475 76, 365.500 76 C 368.525 76, 371 75.612, 371 75.139 C 371 74.665, 369.762 74.424, 368.250 74.603 C 366.738 74.782, 366.288 74.686, 367.250 74.391 C 369.333 73.751, 369.330 73.583, 367.165 68.686 L 365.479 64.872 363.809 69.376 M 242.750 76.706 C 243.988 76.944, 246.012 76.944, 247.250 76.706 C 248.488 76.467, 247.475 76.272, 245 76.272 C 242.525 76.272, 241.512 76.467, 242.750 76.706 M 284.264 80.718 C 285.784 80.947, 288.034 80.941, 289.264 80.704 C 290.494 80.467, 289.250 80.279, 286.500 80.286 C 283.750 80.294, 282.744 80.488, 284.264 80.718" stroke="none" fill="#fcfcfc" fill-rule="evenodd"/></svg>